<?xml version="1.0" standalone="no"?>
<!DOCTYPE svg PUBLIC "-//W3C//DTD SVG 20010904//EN"
 "http://www.w3.org/TR/2001/REC-SVG-20010904/DTD/svg10.dtd">
<svg xmlns="http://www.w3.org/2000/svg" version="1.0" width="157.000000pt" height="42.000000pt" viewBox="0 0 157.000000 42.000000" preserveAspectRatio="xMidYMid meet">
<g transform="translate(0.000000,42.000000) scale(0.050000,-0.050000)" fill="#373738" stroke="none">
<path d="M0 421 l0 -421 93 0 92 0 -14 290 c-8 159 -10 290 -5 290 5 0 56 -130 114 -290 l105 -290 65 0 c44 0 70 12 80 35 7 19 54 148 104 285 50 138 95 255 100 260 6 6 4 -123 -4 -285 l-15 -295 93 0 93 0 -6 415 -5 414 -110 1 -110 0 -103 -296 c-57 -163 -107 -301 -112 -306 -6 -5 -58 128 -117 296 l-108 306 -115 6 -115 6 0 -421z"/>
<path d="M993 823 c-4 -7 56 -196 133 -419 l140 -406 100 6 100 6 136 390 c162 464 157 433 59 431 -106 -1 -104 1 -203 -336 -47 -162 -92 -288 -99 -280 -7 8 -51 146 -98 305 -47 160 -88 293 -92 297 -13 14 -169 19 -176 6z"/>
<path d="M1980 818 c-272 -109 -197 -362 146 -489 142 -52 183 -120 114 -189 -76 -76 -280 -19 -280 79 0 12 -36 21 -80 21 -90 0 -100 -24 -51 -118 74 -143 455 -185 559 -60 115 136 49 304 -150 385 -236 97 -295 162 -206 227 77 56 248 6 248 -74 0 -11 36 -20 80 -20 94 0 103 32 39 136 -66 109 -274 159 -419 102z"/>
<path d="M2507 786 c-17 -70 8 -86 134 -86 l119 0 0 -350 0 -350 90 0 90 0 0 350 0 350 100 0 c100 0 100 0 100 66 l0 67 -311 -2 c-303 -1 -311 -2 -322 -45z"/>
</g>
</svg>
