<?xml version="1.0" standalone="no"?>
<!DOCTYPE svg PUBLIC "-//W3C//DTD SVG 20010904//EN"
 "http://www.w3.org/TR/2001/REC-SVG-20010904/DTD/svg10.dtd">
<svg version="1.0" xmlns="http://www.w3.org/2000/svg"
 width="223.000000pt" height="217.000000pt" viewBox="0 0 223.000000 217.000000"
 preserveAspectRatio="xMidYMid meet">
<g transform="translate(0.000000,217.000000) scale(0.100000,-0.100000)"
fill="#373738" stroke="none">
<path d="M1060 1947 c-323 -89 -557 -352 -631 -712 -7 -33 -12 -118 -12 -190
1 -104 6 -150 27 -230 139 -544 679 -823 1151 -596 95 45 187 113 251 184 68
75 78 92 65 114 -8 16 -25 18 -143 19 -145 1 -189 11 -308 67 -99 48 -233 186
-288 297 -66 132 -85 227 -80 385 4 107 10 144 32 210 49 144 142 274 254 354
68 50 80 81 40 103 -14 7 -74 13 -148 15 -106 3 -138 0 -210 -20z"/>
</g>
</svg>
