<?xml version="1.0" standalone="no"?>
<!DOCTYPE svg PUBLIC "-//W3C//DTD SVG 20010904//EN"
 "http://www.w3.org/TR/2001/REC-SVG-20010904/DTD/svg10.dtd">
<svg version="1.0" xmlns="http://www.w3.org/2000/svg"
 width="321.000000pt" height="390.000000pt" viewBox="0 0 321.000000 390.000000"
 preserveAspectRatio="xMidYMid meet">
<g transform="translate(0.000000,390.000000) scale(0.100000,-0.100000)"
fill="#f7f6f2" stroke="none">
<path d="M505 3764 c-99 -23 -194 -73 -255 -134 -46 -46 -110 -153 -110 -184
0 -12 -5 -27 -11 -33 -11 -11 -13 -689 -3 -1123 3 -124 8 -581 12 -1017 5
-613 10 -795 20 -805 6 -6 12 -21 12 -31 0 -52 121 -207 185 -237 11 -6 27
-14 35 -18 63 -36 68 -38 193 -58 75 -13 204 24 289 83 26 18 50 33 53 33 3 0
29 17 58 38 29 21 90 65 137 97 47 32 106 74 133 92 26 18 98 68 160 110 61
42 144 99 182 125 223 155 342 237 440 304 61 41 157 107 215 147 58 40 141
98 185 128 44 30 109 76 145 101 36 25 121 83 189 129 182 123 238 187 286
329 27 83 17 234 -23 320 -27 58 -97 144 -144 175 -23 17 -46 34 -49 38 -8 11
-47 34 -71 43 -10 3 -18 10 -18 14 0 4 -19 18 -42 30 -24 12 -45 25 -48 29 -3
4 -23 18 -45 31 -22 13 -42 26 -45 29 -9 11 -69 51 -75 51 -3 0 -11 5 -18 10
-7 6 -61 43 -122 82 -60 39 -274 180 -475 313 -201 133 -383 252 -405 265 -22
13 -42 27 -45 30 -6 6 -59 42 -75 50 -18 9 -190 123 -195 130 -7 8 -250 170
-256 170 -3 0 -31 18 -64 40 -32 22 -78 46 -102 55 -43 16 -196 28 -233 19z
m343 -350 c97 -64 210 -139 250 -165 40 -27 77 -49 81 -49 5 0 11 -3 13 -8 4
-10 156 -112 167 -112 5 0 11 -3 13 -7 5 -12 66 -53 78 -53 5 0 10 -5 10 -10
0 -6 10 -15 23 -20 24 -11 59 -32 67 -41 3 -3 23 -16 45 -29 22 -13 45 -28 50
-32 6 -5 64 -44 130 -87 194 -127 681 -448 803 -530 62 -42 122 -81 133 -87
36 -20 90 -78 110 -116 28 -55 26 -163 -4 -216 -20 -36 -113 -122 -132 -122
-3 0 -33 -20 -65 -45 -32 -25 -61 -45 -65 -45 -4 0 -32 -19 -63 -42 -32 -24
-65 -47 -74 -53 -9 -5 -58 -39 -109 -75 -52 -36 -98 -67 -104 -69 -5 -2 -35
-23 -65 -46 -30 -23 -127 -90 -215 -150 -88 -59 -185 -127 -215 -149 -30 -23
-82 -59 -115 -80 -33 -20 -98 -64 -145 -97 -47 -33 -116 -81 -155 -106 -38
-26 -72 -50 -75 -54 -3 -3 -52 -37 -110 -75 -58 -37 -107 -71 -110 -74 -18
-19 -260 -180 -301 -199 -54 -26 -123 -27 -180 -2 -53 24 -81 48 -117 104
l-27 42 -2 235 c-2 129 -7 453 -13 720 -5 267 -10 802 -11 1190 0 784 -4 744
68 811 62 58 99 70 191 64 61 -4 68 -8 240 -121z"/>
</g>
</svg>
