<?xml version="1.0" standalone="no"?>
<!DOCTYPE svg PUBLIC "-//W3C//DTD SVG 20010904//EN"
 "http://www.w3.org/TR/2001/REC-SVG-20010904/DTD/svg10.dtd">
<svg version="1.0" xmlns="http://www.w3.org/2000/svg"
 width="315.000000pt" height="306.000000pt" viewBox="0 0 315.000000 306.000000"
 preserveAspectRatio="xMidYMid meet">
<metadata>
Created by potrace 1.10, written by Peter Selinger 2001-2011
</metadata>
<g transform="translate(0.000000,306.000000) scale(0.100000,-0.100000)"
fill="#f7f6f2" stroke="none">
<path d="M350 2915 c-7 -8 -20 -15 -29 -15 -21 0 -181 -160 -181 -181 0 -9 -7
-22 -15 -29 -13 -11 -15 -157 -15 -1200 0 -1043 2 -1189 15 -1200 8 -7 15 -19
15 -27 0 -20 133 -153 153 -153 8 0 20 -7 27 -15 11 -13 157 -15 1200 -15
1043 0 1189 2 1200 15 7 8 20 15 29 15 21 0 181 160 181 181 0 9 7 22 15 29
13 11 15 153 15 1170 0 1017 -2 1159 -15 1170 -8 7 -15 27 -15 44 0 26 -13 44
-68 99 -37 37 -75 67 -84 67 -8 0 -21 7 -28 15 -7 8 -27 15 -45 15 -18 0 -38
7 -45 15 -11 13 -152 15 -1155 15 -1003 0 -1144 -2 -1155 -15z m2310 -210 c7
-8 19 -15 28 -15 9 0 26 -10 39 -22 l23 -21 0 -1126 0 -1125 -52 -53 -52 -53
-1110 0 -1110 0 -53 52 -53 52 0 1097 c0 963 2 1098 15 1109 8 7 15 19 15 28
0 28 41 62 76 62 17 0 37 7 44 15 11 13 145 15 1095 15 950 0 1084 -2 1095
-15z"/>
</g>
</svg>
