<?xml version="1.0" standalone="no"?>
<!DOCTYPE svg PUBLIC "-//W3C//DTD SVG 20010904//EN"
 "http://www.w3.org/TR/2001/REC-SVG-20010904/DTD/svg10.dtd">
<svg version="1.0" xmlns="http://www.w3.org/2000/svg"
 width="214.000000pt" height="228.000000pt" viewBox="0 0 214.000000 228.000000"
 preserveAspectRatio="xMidYMid meet">
<g transform="translate(0.000000,228.000000) scale(0.100000,-0.100000)"
fill="#373738" stroke="none">
<path d="M1042 2219 c-16 -6 -37 -38 -68 -106 -25 -54 -68 -149 -97 -210 -28
-62 -56 -113 -62 -113 -5 0 -98 32 -205 70 -123 45 -203 69 -217 65 -13 -3
-29 -19 -38 -35 -16 -30 -9 -57 103 -417 15 -46 17 -65 8 -71 -6 -5 -85 -49
-176 -98 -220 -118 -250 -150 -197 -208 12 -13 104 -68 203 -122 177 -94 182
-98 174 -123 -4 -14 -35 -117 -69 -229 -58 -193 -60 -205 -46 -232 9 -17 25
-32 38 -35 13 -3 99 23 222 69 110 40 203 71 207 67 4 -3 48 -96 98 -206 51
-110 99 -206 108 -212 23 -18 66 -16 84 5 8 9 45 82 81 162 36 80 77 171 92
202 l26 57 77 -28 c335 -124 340 -125 367 -107 13 9 27 27 31 40 3 14 -20 105
-61 240 -36 120 -65 222 -63 227 2 5 89 56 193 113 203 111 219 126 199 183
-7 21 -48 48 -202 132 -105 58 -192 110 -192 115 0 5 30 106 66 225 72 232 73
252 23 280 -24 13 -38 10 -205 -52 -98 -36 -191 -70 -205 -76 l-27 -10 -92
202 c-81 177 -124 249 -148 246 -4 0 -17 -4 -30 -10z m173 -561 c156 -51 284
-192 330 -364 22 -78 21 -221 0 -304 -38 -148 -142 -278 -277 -345 -69 -33
-88 -38 -172 -43 -154 -8 -263 35 -374 149 -63 64 -125 184 -143 276 -29 152
8 325 95 448 128 178 337 249 541 183z"/>
<path d="M982 1535 c-77 -21 -110 -42 -167 -100 -198 -202 -140 -550 111 -667
215 -101 463 48 507 305 47 276 -202 531 -451 462z"/>
</g>
</svg>
